<svg xmlns="http://www.w3.org/2000/svg" viewBox="0 0 182.305 159.007" width="100" height="100" class="w-full">
    <g>
        <path fill="#DBCD00" d="M158.621 51.935l-17.972-23.331 29.632-19.804zm-3.536 12.99l-12.262-15.917 3.189 27.048zm-32.181-45.695l-25.331 33.027 33.517-22.401zm7.641 17.333l-39.147 26.163 44.194 16.666zm-39.236 42.151v35.088l24.786-5.912zm-9.419 33.592V74.222l-26.905 31.666zm-34.273-90.593l-5.085 6.603 20.826 13.919zm-6.334 20.289l-4.955 42.046 43.387-16.361zm-9.886.432l-13.632 17.699 10.089 12.374zm-.571-8.533L5.589 16.271l10.381 38.4zm-20.136 34.241l-.053-.193-7.226-26.738L7.6 82.992l3.94-13.826zm2.429 5.744l-5.392 18.926 15.922-6.004zm12.152 15.576l-.589-.724-.663.25-13.368 5.041 23.415 6.221zm11.155-5.58l14.27 17.508 28.617-33.682zm-7.355 73.33l20.001-4.156-21.097-15.549zm-1.646-34.984l22.253 16.4-5.618-27.423zm33.565 20.643l19.419-23.651.254-.322-25.845-6.162zm49.423-3.606l6.037-29.461-25.275 6.028zm32.461 15.652l1.304-23.447-25.102 18.502zm-23.709-13.8l25.886-19.08-19.349-12.821zm-4.732-39.797l12.669-15.543-38.072-14.358zm3.237 4.449l32.83-8.721-19.671-7.42zm18.526-22.168l14.54 5.484-4.922-17.281zm17.513-23.708l-.05.185.278.974 5.268 18.489L173.805 24.781z"/>
        <path fill="#9CA09A" d="M180.598 1.142l-1.59 1.063-38.431 25.684-.452-.587-11.104-14.416-.794-1.031-.792 1.033-6.758 8.81-29.532 38.505-.553-.721L54.869 12.908l-.792-1.033-.794 1.031-6.775 8.797-4.328 5.619-.452.586-.987-.659L3.297 2.224 1.708 1.163 0 .021.155 2.07l.017.219.896 12.297 2.098 28.724.496 6.818 1.854 25.396.277 3.775 1.055 14.461.036.498.038.506.054.707.687.184.445.117.108.028.53.143.228.061 2.158.572 26.903 7.148 2.14.566 6.039 1.605 3.489.928.688.182-2.211 1.465-20.779 13.77-.775.514-.479.316.033.574.031.553.029.521.511 9.164.091 1.682 1.24 22.283.064 1.16 1.137-.236 22.618-4.701 1.708-.355.442-.092 1.272-.264 1.291-.27 6.182-1.283.644-.133.153-.033.353-.074.224-.283.398-.506.337-.426 21.792-26.553 3.191-3.889 1.271-1.549.6.73 20.31 24.748 1.061 1.293 3.744 4.561.534.65.272.344.059.074.392.5.228.289.362.074.146.029.637.133 24.486 5.086 9.029 1.877 1.137.236.064-1.16 1.871-33.652.031-.551.033-.574-.479-.316-.775-.514-22.991-15.232 4.179-1.109 25.569-6.793 2.158-.572.897-.238 8.842-2.352.529-.141.107-.027.451-.119.689-.184.051-.711.037-.502.035-.5 6.676-91.472.018-.218L182.305 0l-1.707 1.142zm-36.129 152.461l-21.605-4.488 23.301-17.172 6.457-4.762-1.546 27.795-6.607-1.373zM93.674 116.22l24.098-5.748 1.416-.338 2.393-.57 2.08-.494 2.37-.566-1.46 7.125-6.268 30.59-3.289-4.004-1.061-1.293-19.238-23.426-.914-1.115-.127.155zm44.154-86.495L98.533 55.987l24.551-32.009 5.149-6.71 9.595 12.457zm33.51-18.427l6.051-4.044-9.117 33.719-4.574 16.929-2.788-3.618-.996-1.294-17.318-22.483 28.742-19.209zm-42.08 97.887l22.234 14.732-29.745 21.922 5.949-29.035 1.562-7.619zm28.645-53.398l.996 1.293 3.517 4.564-5.454 6.691-1.001 1.229-8.217 10.08-.028-.242-.211-1.795-3.188-27.05-.297-2.512-1.43-12.139 15.313 19.881zm-33.539 48.818l.639.752-.455.109-2.08.496-4.687 1.117-1.42.34-23.553 5.617V79.214v-2.006v-5.336v-1.389v-3.02l5.414 6.373 1.735 2.041 24.407 29.628zm3.212-1.313l-.853-1.004-22.733-26.757-1.735-2.043-5.744-6.762 40.025 15.094 1.367.518 4.021 1.516 1.283.484.545.205-3.238 3.969-.864 1.063-11.619 14.252-.455-.535zm16.8-24.05l.212 1.795.036.309-1.129-.426-5.057-1.906-1.368-.516-42.374-15.98 37.529-25.081 1.621-1.083 5.075-3.392 1.568 13.313.297 2.513 3.59 30.454zm-1.895 12.078l.865-1.061 3.526-4.324.135-.166 15.174 5.723 1.512.57 1.51.568 3.262 1.232-4.62 1.227-2.631.699-2.159.574-26.399 7.014 9.825-12.056zm23.527-1.912l-2.051-.771-1.513-.57-13.239-4.994 8.74-10.721 1-1.229 4.836-5.93 2.203 7.729 5.258 18.461-4.234-1.975zm.142-27.94l3.555-13.152 7.893-29.193-4.795 65.694-4.619-16.219-2.002-7.029-.032-.101zM38.554 84.562l43.009-16.219 4.231-1.596-.714.84-1.682 1.979-.459.541-1.313 1.545-27.353 32.197-.327-.4-.834-1.023-14.27-17.508-.288-.356zm47.99-21.623l-7.015 2.645L37.681 81.365l4.763-40.412.17-1.448.77-6.522 22.376 14.955 21.849 14.602-1.065.349zm-53.507-18.345l1.544-2.003 3.187-4.136.794-1.031 1.152-1.497-.299 2.534-.17 1.448-4.665 39.755-3.941-4.836-1.141-1.4-9.589-11.762 13.128-17.072zm2.859-9.114l-.794 1.031-1.808 2.347-1.544 2.004-13.143 17.06-.166-.617-.426-1.576L7.635 17.329 4.917 7.274l33.92 22.669.874.583-3.815 4.954zm-20.808 22.063l.425 1.576.642 2.369-.029.102-2.706 9.502-.435 1.523-3.482 12.224-.682-9.324-.275-3.775-1.105-15.161-.498-6.818-2.234-30.615 10.379 38.397zm.822 16.847l.433-1.523 2.182-7.654 9.19 11.273 1.141 1.4 4.246 5.207-4.836 1.824-1.367.514-.492.186-1.281.484-14.063 5.303 4.847-16.934zm10.787 14.643l2.104-.793 6.497-2.451.133.164.579.711 13.638 16.73-10.355-2.75-2.14-.568-23.312-6.193 12.856-4.85zm27.388 25.236l6.474 31.594-7.083-5.221-1.562-1.152-21.102-15.553 15.442-10.23 2.629-1.742 4.163-2.76.752 3.664.287 1.4zm-22.856 40.729l-1.031-18.547-.095-1.68-.42-7.568L51.117 143l1.562 1.15 6.44 4.748.322.236-1.919.398-2.864.596-1.271.264-1.588.33-1.706.357-19.864 4.919zm50.928-40.301l1.313.313 5.161 1.23-1.02 1.242-1.36 1.656-1.941 2.365-20.308 24.737-.391-1.904-6.172-30.135-.288-1.402-.875-4.275 25.881 6.173zm-24.854-9.321l25.849-30.424 1.312-1.543 1.313-1.545.853-1.002.376-.443.893-1.053 1.6-1.881v2.502 1.389 4.287 2.008 35.385l-5.563-1.324-1.31-.314-25.323-6.036zM54.071 17.288L83.77 56.006 64.414 43.07 44.477 29.746l4.433-5.756 5.161-6.702z"/>
    </g>
</svg>